<svg xmlns="http://www.w3.org/2000/svg" viewBox="0 0 512 512" fill="none">
  <rect width="512" height="512" rx="100" fill="#2563EB"/>
  <g fill="white">
    <!-- Fingerprint icon -->
    <path d="M256 96c-88.4 0-160 71.6-160 160 0 35.3 11.4 67.9 30.7 94.3 5.5 7.5 16 9.1 23.5 3.6 7.5-5.5 9.1-16 3.6-23.5-15.2-20.8-24.2-46.5-24.2-74.4 0-69.6 56.4-126 126-126s126 56.4 126 126c0 27.9-9 53.6-24.2 74.4-5.5 7.5-3.9 18 3.6 23.5 7.5 5.5 18 3.9 23.5-3.6 19.3-26.4 30.7-59 30.7-94.3 0-88.4-71.6-160-160-160z"/>
    <path d="M256 160c-53 0-96 43-96 96 0 21.1 6.8 40.6 18.4 56.4 5.5 7.5 16 9.1 23.5 3.6 7.5-5.5 9.1-16 3.6-23.5-7.3-10-11.5-22.2-11.5-36.5 0-34.2 27.8-62 62-62s62 27.8 62 62c0 14.3-4.2 26.5-11.5 36.5-5.5 7.5-3.9 18 3.6 23.5 7.5 5.5 18 3.9 23.5-3.6 11.6-15.8 18.4-35.3 18.4-56.4 0-53-43-96-96-96z"/>
    <circle cx="256" cy="256" r="40"/>
    <path d="M256 320c-8.8 0-16 7.2-16 16v80c0 8.8 7.2 16 16 16s16-7.2 16-16v-80c0-8.8-7.2-16-16-16z"/>
  </g>
</svg>
